<svg width="240" height="240" viewBox="0 0 240 240" fill="none" xmlns="http://www.w3.org/2000/svg">
<g clip-path="url(#clip0_2972_244)">
<path d="M182.425 11.9669L172.519 2.06109C169.772 -0.686706 165.316 -0.686706 162.569 2.06109C159.821 4.80889 159.821 9.26363 162.569 12.0114L174.072 23.5144L180.677 14.3455C181.224 13.5195 181.813 12.7314 182.425 11.9669Z" fill="url(#paint0_linear_2972_244)"/>
<path d="M216.465 65.9069L227.968 77.4103C229.342 78.7842 231.143 79.4714 232.943 79.4714C234.743 79.4714 236.545 78.7847 237.918 77.4103C240.666 74.6625 240.666 70.2078 237.918 67.46L228.012 57.5537C227.247 58.1658 226.459 58.7545 225.633 59.3019L216.465 65.9069Z" fill="url(#paint1_linear_2972_244)"/>
<path d="M18.7072 130.914C0.920586 148.7 -4.55484 175.201 3.94467 198.249L17.8075 182.526C19.0923 181.069 20.9226 180.207 22.8641 180.146C24.8032 180.086 26.686 180.83 28.0599 182.204L60.4758 214.62C61.678 215.822 62.3985 217.412 62.5186 219.092C62.5359 219.332 62.5406 219.574 62.5331 219.816C62.4721 221.758 61.6109 223.588 60.154 224.873L45.9164 237.426C51.8013 239.151 57.842 239.999 63.8498 240C80.4356 240 96.7892 233.544 109.064 221.269C127.852 202.48 132.466 174.806 122.913 151.649L83.3888 191.174C83.6867 193.287 83.0305 195.509 81.4051 197.135C80.0312 198.509 78.2305 199.196 76.4302 199.196C74.6299 199.196 72.8287 198.509 71.4553 197.135L69.4692 195.149C69.4683 195.148 69.4678 195.147 69.4669 195.146L44.8305 170.511C44.8296 170.51 44.8291 170.509 44.8282 170.509L42.8421 168.523C40.0943 165.775 40.0943 161.32 42.8421 158.572C44.4674 156.947 46.6889 156.291 48.8026 156.588L88.3272 117.064C65.1702 107.511 37.4957 112.125 18.7072 130.914Z" fill="url(#paint2_linear_2972_244)"/>
<path d="M31.6291 231.262L45.2264 219.272L23.4059 197.452L10.832 211.712C13.1333 215.132 15.7699 218.333 18.7058 221.27C22.6005 225.163 26.9333 228.512 31.6291 231.262Z" fill="url(#paint3_linear_2972_244)"/>
<path d="M59.7383 165.53L159.299 65.9694L173.982 80.6524L74.4212 180.213L59.7383 165.53Z" fill="url(#paint4_linear_2972_244)"/>
<path d="M184.711 71.4386L217.526 47.7981C217.61 47.7371 217.696 47.678 217.783 47.6213C222.428 44.5784 225.419 39.6654 225.989 34.1416C226.559 28.6179 224.633 23.1978 220.706 19.2708C216.78 15.3442 211.359 13.4201 205.836 13.9886C200.312 14.5581 195.399 17.5488 192.356 22.1945C192.299 22.2817 192.241 22.3676 192.18 22.452L168.539 55.2671L184.711 71.4386Z" fill="url(#paint5_linear_2972_244)"/>
</g>
<defs>
<linearGradient id="paint0_linear_2972_244" x1="171.466" y1="0.000244141" x2="171.466" y2="23.5144" gradientUnits="userSpaceOnUse">
<stop stop-color="#F6BCF7"/>
<stop offset="1" stop-color="#FB8509"/>
</linearGradient>
<linearGradient id="paint1_linear_2972_244" x1="228.222" y1="57.5537" x2="228.222" y2="79.4714" gradientUnits="userSpaceOnUse">
<stop stop-color="#F6BCF7"/>
<stop offset="1" stop-color="#FB8509"/>
</linearGradient>
<linearGradient id="paint2_linear_2972_244" x1="63.882" y1="112.233" x2="63.882" y2="240" gradientUnits="userSpaceOnUse">
<stop stop-color="#F6BCF7"/>
<stop offset="1" stop-color="#FB8509"/>
</linearGradient>
<linearGradient id="paint3_linear_2972_244" x1="28.0292" y1="197.452" x2="28.0292" y2="231.262" gradientUnits="userSpaceOnUse">
<stop stop-color="#F6BCF7"/>
<stop offset="1" stop-color="#FB8509"/>
</linearGradient>
<linearGradient id="paint4_linear_2972_244" x1="109.519" y1="115.75" x2="124.202" y2="130.433" gradientUnits="userSpaceOnUse">
<stop stop-color="#F6BCF7"/>
<stop offset="1" stop-color="#FB8509"/>
</linearGradient>
<linearGradient id="paint5_linear_2972_244" x1="197.313" y1="13.8906" x2="197.313" y2="71.4386" gradientUnits="userSpaceOnUse">
<stop stop-color="#F6BCF7"/>
<stop offset="1" stop-color="#FB8509"/>
</linearGradient>
<clipPath id="clip0_2972_244">
<rect width="240" height="240" fill="white"/>
</clipPath>
</defs>
</svg>
