<svg width="28" height="29" viewBox="0 0 28 29" fill="none" xmlns="http://www.w3.org/2000/svg">
<path d="M27.9234 8.61294C27.8578 7.12519 27.6172 6.10238 27.2726 5.21609C26.9171 4.27533 26.3701 3.43306 25.6534 2.73288C24.9533 2.0218 24.1054 1.46927 23.1756 1.11928C22.2842 0.774644 21.2667 0.534057 19.7789 0.468462C18.2801 0.397312 17.8043 0.380859 14.0027 0.380859C10.2012 0.380859 9.72538 0.397312 8.23208 0.462907C6.74433 0.528502 5.72152 0.769302 4.83545 1.11373C3.89447 1.46927 3.0522 2.01625 2.35202 2.73288C1.64095 3.43306 1.08862 4.28088 0.738425 5.21075C0.393784 6.10238 0.153198 7.11963 0.0876025 8.60738C0.0164522 10.1062 0 10.5821 0 14.3836C0 18.1851 0.0164522 18.6609 0.0820473 20.1543C0.147642 21.642 0.388443 22.6648 0.733084 23.5511C1.08862 24.4919 1.64095 25.3341 2.35202 26.0343C3.0522 26.7454 3.90002 27.2979 4.82989 27.6479C5.72152 27.9925 6.73877 28.2331 8.22674 28.2987C9.71982 28.3645 10.1959 28.3808 13.9974 28.3808C17.7989 28.3808 18.2747 28.3645 19.7681 28.2987C21.2558 28.2331 22.2786 27.9925 23.1647 27.6479C25.0464 26.9204 26.5342 25.4326 27.2617 23.5511C27.6061 22.6595 27.8469 21.642 27.9125 20.1543C27.9781 18.6609 27.9946 18.1851 27.9946 14.3836C27.9946 10.5821 27.989 10.1062 27.9234 8.61294ZM25.402 20.0449C25.3417 21.4123 25.112 22.1507 24.9206 22.643C24.4501 23.8628 23.482 24.8309 22.2622 25.3014C21.7699 25.4929 21.0261 25.7226 19.664 25.7826C18.1871 25.8484 17.7442 25.8647 14.0083 25.8647C10.2724 25.8647 9.82388 25.8484 8.35237 25.7826C6.98492 25.7226 6.24649 25.4929 5.75421 25.3014C5.14718 25.0771 4.59465 24.7216 4.14616 24.2566C3.68123 23.8026 3.32569 23.2556 3.10134 22.6486C2.9099 22.1563 2.68021 21.4123 2.62017 20.0504C2.55436 18.5736 2.53812 18.1304 2.53812 14.3945C2.53812 10.6586 2.55436 10.2101 2.62017 8.73878C2.68021 7.37133 2.9099 6.6329 3.10134 6.14062C3.32569 5.53339 3.68123 4.98106 4.15172 4.53237C4.60554 4.06743 5.15253 3.71189 5.75976 3.48776C6.25205 3.29632 6.99603 3.06663 8.35793 3.00637C9.83478 2.94078 10.2779 2.92432 14.0136 2.92432C17.7551 2.92432 18.198 2.94078 19.6696 3.00637C21.037 3.06663 21.7754 3.29632 22.2677 3.48776C22.8747 3.71189 23.4273 4.06743 23.8758 4.53237C24.3407 4.9864 24.6962 5.53339 24.9206 6.14062C25.112 6.6329 25.3417 7.37667 25.402 8.73878C25.4676 10.2156 25.484 10.6586 25.484 14.3945C25.484 18.1304 25.4676 18.568 25.402 20.0449Z" fill="url(#paint0_linear_2985_432)"/>
<path d="M14.0508 7.19067C10.0806 7.19067 6.85938 10.4123 6.85938 14.3835C6.85938 18.3546 10.0806 21.5763 14.0508 21.5763C18.0212 21.5763 21.2422 18.3546 21.2422 14.3835C21.2422 10.4123 18.0212 7.19067 14.0508 7.19067ZM14.0508 19.0492C11.4751 19.0492 9.3859 16.9598 9.3859 14.3835C9.3859 11.8071 11.4751 9.71768 14.0508 9.71768C16.6267 9.71768 18.7157 11.8071 18.7157 14.3835C18.7157 16.9598 16.6267 19.0492 14.0508 19.0492Z" fill="url(#paint1_linear_2985_432)"/>
<path d="M23.2063 6.90673C23.2063 7.83404 22.4544 8.58592 21.5268 8.58592C20.5995 8.58592 19.8477 7.83404 19.8477 6.90673C19.8477 5.97921 20.5995 5.22754 21.5268 5.22754C22.4544 5.22754 23.2063 5.97921 23.2063 6.90673Z" fill="url(#paint2_linear_2985_432)"/>
<defs>
<linearGradient id="paint0_linear_2985_432" x1="13.9973" y1="0.380859" x2="13.9973" y2="28.3808" gradientUnits="userSpaceOnUse">
<stop stop-color="#0AE448"/>
<stop offset="1" stop-color="#ABFF84"/>
</linearGradient>
<linearGradient id="paint1_linear_2985_432" x1="14.0508" y1="7.19067" x2="14.0508" y2="21.5763" gradientUnits="userSpaceOnUse">
<stop stop-color="#0AE448"/>
<stop offset="1" stop-color="#ABFF84"/>
</linearGradient>
<linearGradient id="paint2_linear_2985_432" x1="21.527" y1="5.22754" x2="21.527" y2="8.58592" gradientUnits="userSpaceOnUse">
<stop stop-color="#0AE448"/>
<stop offset="1" stop-color="#ABFF84"/>
</linearGradient>
</defs>
</svg>
