<svg width="28" height="29" viewBox="0 0 28 29" fill="none" xmlns="http://www.w3.org/2000/svg">
<path d="M28 5.69911C26.9587 6.15586 25.8492 6.45861 24.6925 6.60561C25.8825 5.89511 26.7908 4.77861 27.2178 3.43286C26.1083 4.09436 24.8832 4.56161 23.5777 4.82236C22.5243 3.70061 21.0227 3.00586 19.3848 3.00586C16.2067 3.00586 13.6482 5.58536 13.6482 8.74761C13.6482 9.20261 13.6868 9.64011 13.7812 10.0566C9.009 9.82386 4.78625 7.53661 1.9495 4.05236C1.45425 4.91161 1.16375 5.89511 1.16375 6.95386C1.16375 8.94186 2.1875 10.7041 3.7135 11.7244C2.79125 11.7069 1.8865 11.4391 1.12 11.0174C1.12 11.0349 1.12 11.0576 1.12 11.0804C1.12 13.8699 3.10975 16.1869 5.719 16.7206C5.25175 16.8484 4.7425 16.9096 4.214 16.9096C3.8465 16.9096 3.4755 16.8886 3.12725 16.8116C3.871 19.0849 5.9815 20.7561 8.491 20.8104C6.538 22.3381 4.05825 23.2586 1.37375 23.2586C0.903 23.2586 0.4515 23.2376 0 23.1799C2.54275 24.8196 5.55625 25.7559 8.806 25.7559C19.369 25.7559 25.144 17.0059 25.144 9.42136C25.144 9.16761 25.1353 8.92261 25.123 8.67936C26.2622 7.87086 27.2195 6.86111 28 5.69911Z" fill="url(#paint0_linear_2985_504)"/>
<defs>
<linearGradient id="paint0_linear_2985_504" x1="14" y1="3.00586" x2="14" y2="25.7559" gradientUnits="userSpaceOnUse">
<stop stop-color="#FFCAFB"/>
<stop offset="1" stop-color="#3A43C3"/>
</linearGradient>
</defs>
</svg>
